<svg width="42" height="42" viewBox="0 0 42 42" fill="none" xmlns="http://www.w3.org/2000/svg">
<path d="M21 41.6895C16.9922 41.6895 14.6719 39.2285 14.6719 34.9043V27.1348H7.14844C3.07031 27.1348 0.75 24.8848 0.75 21.0176C0.75 17.1504 3.07031 14.9004 7.14844 14.9004H14.6719V7.06055C14.6719 2.77148 17.0273 0.310547 21 0.310547C25.0078 0.310547 27.3281 2.77148 27.3281 7.06055V14.9004H34.8164C38.8945 14.9004 41.25 17.1504 41.25 21.0176C41.25 24.8848 38.8594 27.1348 34.7461 27.1348H27.3281V34.9395C27.3281 39.2285 25.0078 41.6895 21 41.6895Z" fill="#DCDCDC"/>
</svg>
